<svg width="48" height="47" viewBox="0 0 48 47" fill="none" xmlns="http://www.w3.org/2000/svg">
<rect x="0.575317" width="46.9075" height="46.9075" rx="5.62889" fill="#172D4B"/>
<path d="M21.5537 7.05948V11.9405C18.2402 12.9187 15.6802 15.6557 14.9551 19.0702H10.1444C10.9165 12.9948 15.5778 8.13294 21.5537 7.05948Z" fill="#D9F461"/>
<path d="M37.9529 19.0703H33.5439C32.7803 15.4738 29.9822 12.6302 26.4106 11.7999V7.03613C32.4505 8.06055 37.1752 12.9494 37.9529 19.0703Z" fill="#D9F461"/>
<path d="M37.7275 23.9272C36.4955 29.436 32.0204 33.7206 26.4114 34.6725V30.3097C29.683 29.549 32.3062 27.0978 33.31 23.9279H37.7275V23.9272Z" fill="#D9F461"/>
<path d="M21.5536 30.1689V34.6491C16.0071 33.6524 11.5924 29.3926 10.3704 23.9272H15.1896C16.1386 26.9237 18.533 29.2768 21.5536 30.1689Z" fill="#D9F461"/>
<path d="M26.4106 34.6726V39.8714H21.5537V34.6491C22.3634 34.7949 23.1973 34.8709 24.049 34.8709C24.8537 34.8709 25.6428 34.8034 26.4106 34.6726Z" fill="#D9F461"/>
<path d="M26.4106 19.0703H21.5537V23.9272H26.4106V19.0703Z" fill="#D9F461"/>
</svg>
