<svg width="230" height="40" viewBox="0 0 230 40" fill="none" xmlns="http://www.w3.org/2000/svg">
<g filter="url(#filter0_d_1_641)">
<path d="M2 19C2 13.4087 2 10.6131 2.91345 8.4078C4.13137 5.46746 6.46746 3.13137 9.4078 1.91345C11.6131 1 14.4087 1 20 1H210C215.591 1 218.387 1 220.592 1.91345C223.533 3.13137 225.869 5.46746 227.087 8.4078C228 10.6131 228 13.4087 228 19C228 24.5913 228 27.3869 227.087 29.5922C225.869 32.5325 223.533 34.8686 220.592 36.0866C218.387 37 215.591 37 210 37H20C14.4087 37 11.6131 37 9.4078 36.0866C6.46746 34.8686 4.13137 32.5325 2.91345 29.5922C2 27.3869 2 24.5913 2 19Z" fill="#FCFCFC"/>
<path d="M2.5 19C2.5 16.1975 2.50027 14.1207 2.61302 12.4682C2.72546 10.8201 2.9481 9.63069 3.37539 8.59914C4.54257 5.78132 6.78132 3.54257 9.59914 2.37539C10.6307 1.9481 11.8201 1.72546 13.4682 1.61302C15.1207 1.50027 17.1975 1.5 20 1.5H210C212.802 1.5 214.879 1.50027 216.532 1.61302C218.18 1.72546 219.369 1.9481 220.401 2.37538C223.219 3.54257 225.457 5.78132 226.625 8.59914C227.052 9.63069 227.275 10.8201 227.387 12.4682C227.5 14.1207 227.5 16.1975 227.5 19C227.5 21.8025 227.5 23.8793 227.387 25.5318C227.275 27.1799 227.052 28.3693 226.625 29.4009C225.457 32.2187 223.219 34.4574 220.401 35.6246C219.369 36.0519 218.18 36.2745 216.532 36.387C214.879 36.4997 212.802 36.5 210 36.5H20C17.1975 36.5 15.1207 36.4997 13.4682 36.387C11.8201 36.2745 10.6307 36.0519 9.59914 35.6246C6.78132 34.4574 4.54257 32.2187 3.37539 29.4009C2.9481 28.3693 2.72546 27.1799 2.61302 25.5318C2.50027 23.8793 2.5 21.8025 2.5 19Z" stroke="#E1E1E2"/>
<g clip-path="url(#clip0_1_641)">
<path d="M22.5546 18.5546H14V10H22.5546V18.5546Z" fill="#F1511B"/>
<path d="M32 18.5546H23.4454V10H32V18.5546Z" fill="#80CC28"/>
<path d="M22.5544 28.0001H14V19.4455H22.5544V28.0001Z" fill="#00ADEF"/>
<path d="M32 28.0001H23.4454V19.4455H32V28.0001Z" fill="#FBBC09"/>
</g>
<path d="M48.9585 24.192C48.1478 24.192 47.4278 24.048 46.7985 23.76C46.1692 23.472 45.6785 23.0613 45.3265 22.528C44.9745 21.9947 44.7932 21.36 44.7825 20.624H46.8145C46.8145 20.9973 46.8998 21.3333 47.0705 21.632C47.2518 21.92 47.4972 22.1493 47.8065 22.32C48.1265 22.4907 48.5105 22.576 48.9585 22.576C49.3425 22.576 49.6732 22.5173 49.9505 22.4C50.2385 22.272 50.4572 22.096 50.6065 21.872C50.7665 21.6373 50.8465 21.3653 50.8465 21.056C50.8465 20.704 50.7612 20.416 50.5905 20.192C50.4305 19.9573 50.2065 19.76 49.9185 19.6C49.6305 19.44 49.2998 19.3013 48.9265 19.184C48.5532 19.056 48.1585 18.9227 47.7425 18.784C46.8572 18.4853 46.1905 18.1067 45.7425 17.648C45.2945 17.1787 45.0705 16.5547 45.0705 15.776C45.0705 15.1253 45.2252 14.5653 45.5345 14.096C45.8438 13.6267 46.2758 13.264 46.8305 13.008C47.3958 12.7413 48.0465 12.608 48.7825 12.608C49.5292 12.608 50.1798 12.7413 50.7345 13.008C51.2998 13.2747 51.7425 13.648 52.0625 14.128C52.3932 14.5973 52.5638 15.1627 52.5745 15.824H50.5265C50.5158 15.5467 50.4412 15.2907 50.3025 15.056C50.1638 14.8107 49.9612 14.6133 49.6945 14.464C49.4385 14.304 49.1238 14.224 48.7505 14.224C48.4305 14.2133 48.1425 14.2667 47.8865 14.384C47.6412 14.4907 47.4438 14.6507 47.2945 14.864C47.1558 15.0667 47.0865 15.3227 47.0865 15.632C47.0865 15.9307 47.1505 16.1813 47.2785 16.384C47.4172 16.576 47.6145 16.7413 47.8705 16.88C48.1265 17.008 48.4252 17.1307 48.7665 17.248C49.1078 17.3653 49.4812 17.4933 49.8865 17.632C50.4412 17.8133 50.9425 18.0373 51.3905 18.304C51.8492 18.56 52.2118 18.896 52.4785 19.312C52.7452 19.728 52.8785 20.2667 52.8785 20.928C52.8785 21.504 52.7292 22.0427 52.4305 22.544C52.1318 23.0347 51.6945 23.4347 51.1185 23.744C50.5425 24.0427 49.8225 24.192 48.9585 24.192ZM54.7614 24V15.936H56.6814V24H54.7614ZM55.7214 14.656C55.3694 14.656 55.076 14.5493 54.8414 14.336C54.6174 14.112 54.5054 13.84 54.5054 13.52C54.5054 13.1893 54.6174 12.9227 54.8414 12.72C55.076 12.5067 55.3694 12.4 55.7214 12.4C56.0734 12.4 56.3614 12.5067 56.5854 12.72C56.82 12.9227 56.9374 13.1893 56.9374 13.52C56.9374 13.84 56.82 14.112 56.5854 14.336C56.3614 14.5493 56.0734 14.656 55.7214 14.656ZM62.2921 27.712C61.5348 27.712 60.8681 27.616 60.2921 27.424C59.7268 27.2427 59.2841 26.96 58.9641 26.576C58.6548 26.2027 58.5001 25.7333 58.5001 25.168C58.5001 24.8373 58.5801 24.512 58.7401 24.192C58.9108 23.8827 59.1615 23.5947 59.4921 23.328C59.8335 23.0507 60.2655 22.8107 60.7881 22.608L61.6361 23.536C61.1241 23.7173 60.7668 23.936 60.5641 24.192C60.3615 24.448 60.2601 24.7093 60.2601 24.976C60.2601 25.2533 60.3455 25.4827 60.5161 25.664C60.6975 25.856 60.9375 26 61.2361 26.096C61.5455 26.192 61.8921 26.24 62.2761 26.24C62.6495 26.24 62.9748 26.1867 63.2521 26.08C63.5295 25.984 63.7428 25.8453 63.8921 25.664C64.0521 25.4827 64.1321 25.264 64.1321 25.008C64.1321 24.688 64.0201 24.4267 63.7961 24.224C63.5721 24.032 63.1295 23.9147 62.4681 23.872C61.9028 23.8293 61.4068 23.7707 60.9801 23.696C60.5535 23.6107 60.1855 23.5147 59.8761 23.408C59.5775 23.3013 59.3215 23.184 59.1081 23.056C58.8948 22.9173 58.7188 22.7787 58.5801 22.64V22.272L60.2601 20.512L61.6841 20.976L59.7961 22.816L60.2921 21.888C60.3988 21.9627 60.5055 22.032 60.6121 22.096C60.7295 22.16 60.8735 22.2187 61.0441 22.272C61.2255 22.3147 61.4601 22.3573 61.7481 22.4C62.0361 22.4427 62.4095 22.4853 62.8681 22.528C63.5828 22.5813 64.1641 22.7093 64.6121 22.912C65.0601 23.1147 65.3908 23.3867 65.6041 23.728C65.8175 24.0693 65.9241 24.48 65.9241 24.96C65.9241 25.4293 65.7908 25.872 65.5241 26.288C65.2681 26.704 64.8735 27.0453 64.3401 27.312C63.8068 27.5787 63.1241 27.712 62.2921 27.712ZM62.2921 21.584C61.6201 21.584 61.0388 21.456 60.5481 21.2C60.0681 20.9333 59.7001 20.5813 59.4441 20.144C59.1881 19.696 59.0601 19.2053 59.0601 18.672C59.0601 18.128 59.1881 17.6373 59.4441 17.2C59.7001 16.7627 60.0681 16.4107 60.5481 16.144C61.0388 15.8773 61.6201 15.744 62.2921 15.744C62.9641 15.744 63.5401 15.8773 64.0201 16.144C64.5001 16.4107 64.8681 16.7627 65.1241 17.2C65.3801 17.6373 65.5081 18.128 65.5081 18.672C65.5081 19.2053 65.3801 19.696 65.1241 20.144C64.8681 20.5813 64.5001 20.9333 64.0201 21.2C63.5401 21.456 62.9641 21.584 62.2921 21.584ZM62.2921 20.096C62.7508 20.096 63.1188 19.9733 63.3961 19.728C63.6735 19.4827 63.8121 19.1307 63.8121 18.672C63.8121 18.2133 63.6735 17.8667 63.3961 17.632C63.1188 17.3867 62.7508 17.264 62.2921 17.264C61.8335 17.264 61.4601 17.3867 61.1721 17.632C60.8841 17.8667 60.7401 18.2133 60.7401 18.672C60.7401 19.1307 60.8841 19.4827 61.1721 19.728C61.4601 19.9733 61.8335 20.096 62.2921 20.096ZM63.6201 17.344L63.2521 15.936H66.5641V17.136L63.6201 17.344ZM68.2595 24V15.936H69.9555L70.0995 17.28C70.3448 16.8107 70.6968 16.4373 71.1555 16.16C71.6142 15.8827 72.1582 15.744 72.7875 15.744C73.4382 15.744 73.9928 15.8827 74.4515 16.16C74.9102 16.4267 75.2622 16.8213 75.5075 17.344C75.7635 17.8667 75.8915 18.5173 75.8915 19.296V24H73.9715V19.472C73.9715 18.8 73.8222 18.2827 73.5235 17.92C73.2248 17.5573 72.7822 17.376 72.1955 17.376C71.8115 17.376 71.4648 17.4667 71.1555 17.648C70.8568 17.8293 70.6168 18.096 70.4355 18.448C70.2648 18.7893 70.1795 19.2053 70.1795 19.696V24H68.2595ZM81.902 24V15.936H83.822V24H81.902ZM82.862 14.656C82.51 14.656 82.2167 14.5493 81.982 14.336C81.758 14.112 81.646 13.84 81.646 13.52C81.646 13.1893 81.758 12.9227 81.982 12.72C82.2167 12.5067 82.51 12.4 82.862 12.4C83.214 12.4 83.502 12.5067 83.726 12.72C83.9607 12.9227 84.078 13.1893 84.078 13.52C84.078 13.84 83.9607 14.112 83.726 14.336C83.502 14.5493 83.214 14.656 82.862 14.656ZM86.0408 24V15.936H87.7368L87.8808 17.28C88.1261 16.8107 88.4781 16.4373 88.9368 16.16C89.3954 15.8827 89.9394 15.744 90.5688 15.744C91.2194 15.744 91.7741 15.8827 92.2328 16.16C92.6914 16.4267 93.0434 16.8213 93.2888 17.344C93.5448 17.8667 93.6728 18.5173 93.6728 19.296V24H91.7528V19.472C91.7528 18.8 91.6034 18.2827 91.3048 17.92C91.0061 17.5573 90.5634 17.376 89.9768 17.376C89.5928 17.376 89.2461 17.4667 88.9368 17.648C88.6381 17.8293 88.3981 18.096 88.2168 18.448C88.0461 18.7893 87.9608 19.2053 87.9608 19.696V24H86.0408ZM101.203 24L98.8353 15.936H100.739L102.387 22.56L102.035 22.544L103.875 15.936H106.019L107.875 22.544H107.523L109.171 15.936H111.075L108.707 24H106.723L104.755 17.168H105.155L103.187 24H101.203ZM112.527 24V15.936H114.447V24H112.527ZM113.487 14.656C113.135 14.656 112.842 14.5493 112.607 14.336C112.383 14.112 112.271 13.84 112.271 13.52C112.271 13.1893 112.383 12.9227 112.607 12.72C112.842 12.5067 113.135 12.4 113.487 12.4C113.839 12.4 114.127 12.5067 114.351 12.72C114.586 12.9227 114.703 13.1893 114.703 13.52C114.703 13.84 114.586 14.112 114.351 14.336C114.127 14.5493 113.839 14.656 113.487 14.656ZM120.17 24C119.626 24 119.151 23.9147 118.746 23.744C118.351 23.5733 118.042 23.2907 117.818 22.896C117.594 22.5013 117.482 21.968 117.482 21.296V17.552H116.106V15.936H117.482L117.706 13.808H119.402V15.936H121.594V17.552H119.402V21.296C119.402 21.7013 119.487 21.984 119.658 22.144C119.839 22.2933 120.138 22.368 120.554 22.368H121.546V24H120.17ZM123.4 24V12.48H125.32V17.184C125.587 16.7467 125.949 16.4 126.408 16.144C126.867 15.8773 127.384 15.744 127.96 15.744C128.621 15.744 129.181 15.8827 129.64 16.16C130.099 16.4267 130.445 16.8267 130.68 17.36C130.925 17.8827 131.048 18.5387 131.048 19.328V24H129.144V19.504C129.144 18.8107 128.995 18.2827 128.696 17.92C128.408 17.5573 127.965 17.376 127.368 17.376C126.984 17.376 126.637 17.472 126.328 17.664C126.019 17.8453 125.773 18.112 125.592 18.464C125.411 18.8053 125.32 19.2267 125.32 19.728V24H123.4ZM142.162 24.192C141.085 24.192 140.13 23.952 139.298 23.472C138.477 22.9813 137.831 22.304 137.362 21.44C136.893 20.5653 136.658 19.552 136.658 18.4C136.658 17.2587 136.893 16.256 137.362 15.392C137.831 14.5173 138.477 13.8347 139.298 13.344C140.13 12.8533 141.085 12.608 142.162 12.608C143.261 12.608 144.226 12.8533 145.058 13.344C145.89 13.8347 146.535 14.5173 146.994 15.392C147.453 16.256 147.682 17.2587 147.682 18.4C147.682 19.552 147.453 20.5653 146.994 21.44C146.535 22.304 145.89 22.9813 145.058 23.472C144.226 23.952 143.261 24.192 142.162 24.192ZM142.178 22.464C142.893 22.464 143.517 22.304 144.05 21.984C144.583 21.6533 144.994 21.184 145.282 20.576C145.57 19.968 145.714 19.2427 145.714 18.4C145.714 17.5573 145.57 16.832 145.282 16.224C144.994 15.616 144.583 15.152 144.05 14.832C143.517 14.5013 142.893 14.336 142.178 14.336C141.463 14.336 140.839 14.5013 140.306 14.832C139.773 15.152 139.357 15.616 139.058 16.224C138.77 16.832 138.626 17.5573 138.626 18.4C138.626 19.2427 138.77 19.968 139.058 20.576C139.357 21.184 139.773 21.6533 140.306 21.984C140.839 22.304 141.463 22.464 142.178 22.464ZM149.894 24V15.056C149.894 14.4373 149.995 13.9413 150.198 13.568C150.411 13.184 150.715 12.9067 151.11 12.736C151.505 12.5653 151.974 12.48 152.518 12.48H153.478V14.112H152.806C152.454 14.112 152.198 14.1867 152.038 14.336C151.889 14.4747 151.814 14.72 151.814 15.072V24H149.894ZM148.742 17.552V15.936H153.638V17.552H148.742ZM155.675 24V17.552H154.539V15.936H155.675V15.056C155.675 14.4373 155.781 13.9413 155.995 13.568C156.208 13.184 156.512 12.9067 156.907 12.736C157.301 12.5653 157.771 12.48 158.315 12.48H159.163V14.112H158.603C158.251 14.112 157.995 14.1867 157.835 14.336C157.675 14.4747 157.595 14.72 157.595 15.072V15.936H162.603V24H160.683V17.552H157.595V24H155.675ZM161.659 14.72C161.307 14.72 161.013 14.6133 160.779 14.4C160.555 14.176 160.443 13.904 160.443 13.584C160.443 13.2533 160.555 12.9867 160.779 12.784C161.013 12.5707 161.307 12.464 161.659 12.464C162.021 12.464 162.315 12.5707 162.539 12.784C162.763 12.9867 162.875 13.2533 162.875 13.584C162.875 13.904 162.763 14.176 162.539 14.4C162.315 14.6133 162.021 14.72 161.659 14.72ZM168.646 24.192C167.857 24.192 167.147 24.016 166.518 23.664C165.899 23.3013 165.414 22.8053 165.062 22.176C164.721 21.536 164.55 20.8107 164.55 20C164.55 19.1573 164.721 18.4213 165.062 17.792C165.414 17.152 165.899 16.6507 166.518 16.288C167.147 15.9253 167.862 15.744 168.662 15.744C169.665 15.744 170.507 16.0107 171.19 16.544C171.873 17.0667 172.31 17.7867 172.502 18.704H170.486C170.379 18.2987 170.155 17.9787 169.814 17.744C169.483 17.5093 169.089 17.392 168.63 17.392C168.235 17.392 167.873 17.4933 167.542 17.696C167.222 17.8987 166.966 18.192 166.774 18.576C166.593 18.96 166.502 19.424 166.502 19.968C166.502 20.384 166.555 20.752 166.662 21.072C166.769 21.392 166.918 21.664 167.11 21.888C167.313 22.1013 167.542 22.2667 167.798 22.384C168.054 22.5013 168.331 22.56 168.63 22.56C168.939 22.56 169.217 22.512 169.462 22.416C169.718 22.3093 169.931 22.1547 170.102 21.952C170.283 21.7493 170.411 21.5093 170.486 21.232H172.502C172.31 22.128 171.873 22.848 171.19 23.392C170.507 23.9253 169.659 24.192 168.646 24.192ZM178.129 24.192C177.329 24.192 176.625 24.0213 176.017 23.68C175.409 23.328 174.935 22.8373 174.593 22.208C174.252 21.5787 174.081 20.8533 174.081 20.032C174.081 19.1787 174.247 18.432 174.577 17.792C174.919 17.152 175.393 16.6507 176.001 16.288C176.62 15.9253 177.335 15.744 178.145 15.744C178.935 15.744 179.623 15.92 180.209 16.272C180.796 16.624 181.249 17.0987 181.569 17.696C181.889 18.2827 182.049 18.944 182.049 19.68C182.049 19.7867 182.049 19.904 182.049 20.032C182.049 20.16 182.039 20.2933 182.017 20.432H175.457V19.2H180.113C180.092 18.6133 179.895 18.1547 179.521 17.824C179.148 17.4827 178.684 17.312 178.129 17.312C177.735 17.312 177.372 17.4027 177.041 17.584C176.711 17.7653 176.449 18.0373 176.257 18.4C176.065 18.752 175.969 19.2 175.969 19.744V20.208C175.969 20.7093 176.06 21.1413 176.241 21.504C176.433 21.8667 176.689 22.144 177.009 22.336C177.34 22.5173 177.708 22.608 178.113 22.608C178.561 22.608 178.929 22.512 179.217 22.32C179.516 22.128 179.735 21.872 179.873 21.552H181.825C181.676 22.0533 181.431 22.5067 181.089 22.912C180.748 23.3067 180.327 23.6213 179.825 23.856C179.324 24.08 178.759 24.192 178.129 24.192ZM191.424 24.192C190.699 24.192 190.038 24.064 189.44 23.808C188.843 23.5413 188.363 23.1413 188 22.608C187.648 22.064 187.462 21.3813 187.44 20.56H189.328C189.339 20.9333 189.424 21.2747 189.584 21.584C189.755 21.8827 189.995 22.1227 190.304 22.304C190.614 22.4747 190.987 22.56 191.424 22.56C191.84 22.56 192.192 22.48 192.48 22.32C192.779 22.16 193.003 21.9413 193.152 21.664C193.302 21.3867 193.376 21.0773 193.376 20.736C193.376 20.32 193.275 19.9787 193.072 19.712C192.87 19.4347 192.592 19.2267 192.24 19.088C191.888 18.9493 191.488 18.88 191.04 18.88H190.208V17.296H191.04C191.627 17.296 192.107 17.1627 192.48 16.896C192.854 16.6187 193.04 16.2187 193.04 15.696C193.04 15.2587 192.896 14.9067 192.608 14.64C192.331 14.3733 191.931 14.24 191.408 14.24C190.864 14.24 190.432 14.4 190.112 14.72C189.803 15.04 189.632 15.4347 189.6 15.904H187.712C187.744 15.232 187.915 14.6507 188.224 14.16C188.544 13.6587 188.976 13.2747 189.52 13.008C190.064 12.7413 190.699 12.608 191.424 12.608C192.182 12.608 192.822 12.7413 193.344 13.008C193.867 13.2747 194.262 13.632 194.528 14.08C194.806 14.528 194.944 15.0187 194.944 15.552C194.944 15.968 194.864 16.3467 194.704 16.688C194.544 17.0293 194.326 17.3173 194.048 17.552C193.782 17.776 193.467 17.9413 193.104 18.048C193.52 18.1333 193.888 18.2987 194.208 18.544C194.539 18.7893 194.795 19.104 194.976 19.488C195.168 19.8613 195.264 20.2987 195.264 20.8C195.264 21.408 195.115 21.9733 194.816 22.496C194.528 23.008 194.096 23.4187 193.52 23.728C192.955 24.0373 192.256 24.192 191.424 24.192ZM201.514 24.192C200.682 24.192 199.978 24.0373 199.402 23.728C198.837 23.4187 198.384 23.008 198.042 22.496C197.701 21.9733 197.45 21.392 197.29 20.752C197.13 20.112 197.05 19.456 197.05 18.784C197.05 17.536 197.226 16.4533 197.578 15.536C197.93 14.608 198.432 13.888 199.082 13.376C199.744 12.864 200.538 12.608 201.466 12.608C202.234 12.608 202.88 12.7573 203.402 13.056C203.936 13.344 204.352 13.728 204.65 14.208C204.949 14.688 205.13 15.2107 205.194 15.776H203.402C203.306 15.2747 203.088 14.8907 202.746 14.624C202.416 14.3467 201.984 14.208 201.45 14.208C200.97 14.208 200.544 14.3573 200.17 14.656C199.797 14.9547 199.504 15.4027 199.29 16C199.077 16.5973 198.954 17.3547 198.922 18.272C198.922 18.2933 198.922 18.3147 198.922 18.336C198.922 18.3467 198.922 18.3627 198.922 18.384C199.093 18.0747 199.322 17.8027 199.61 17.568C199.898 17.3227 200.229 17.1307 200.602 16.992C200.986 16.8533 201.397 16.784 201.834 16.784C202.464 16.784 203.045 16.9333 203.578 17.232C204.122 17.52 204.56 17.936 204.89 18.48C205.232 19.024 205.402 19.664 205.402 20.4C205.402 21.072 205.242 21.696 204.922 22.272C204.602 22.848 204.149 23.312 203.562 23.664C202.976 24.016 202.293 24.192 201.514 24.192ZM201.402 22.544C201.818 22.544 202.186 22.4533 202.506 22.272C202.826 22.0907 203.077 21.8453 203.258 21.536C203.45 21.2267 203.546 20.8747 203.546 20.48C203.546 20.064 203.45 19.7013 203.258 19.392C203.077 19.0827 202.821 18.8427 202.49 18.672C202.17 18.5013 201.802 18.416 201.386 18.416C200.981 18.416 200.613 18.5067 200.282 18.688C199.962 18.8587 199.706 19.0987 199.514 19.408C199.322 19.7173 199.226 20.0693 199.226 20.464C199.226 20.8693 199.322 21.2267 199.514 21.536C199.706 21.8453 199.962 22.0907 200.282 22.272C200.613 22.4533 200.986 22.544 201.402 22.544ZM211.119 24.192C210.319 24.192 209.626 24.0533 209.039 23.776C208.463 23.488 208.01 23.0987 207.679 22.608C207.348 22.1067 207.151 21.5413 207.087 20.912H208.959C209.055 21.3813 209.295 21.776 209.679 22.096C210.063 22.4053 210.543 22.56 211.119 22.56C211.556 22.56 211.93 22.4587 212.239 22.256C212.548 22.0427 212.788 21.76 212.959 21.408C213.14 21.0453 213.231 20.64 213.231 20.192C213.231 19.7333 213.14 19.3333 212.959 18.992C212.788 18.6507 212.548 18.3893 212.239 18.208C211.93 18.016 211.572 17.92 211.167 17.92C210.666 17.92 210.234 18.0373 209.871 18.272C209.519 18.496 209.263 18.7787 209.103 19.12H207.247L208.175 12.8H214.351V14.48H209.615L209.103 17.248C209.348 16.9813 209.674 16.768 210.079 16.608C210.484 16.4373 210.948 16.352 211.471 16.352C212.058 16.352 212.575 16.4533 213.023 16.656C213.471 16.8587 213.85 17.136 214.159 17.488C214.468 17.84 214.698 18.2507 214.847 18.72C215.007 19.1787 215.087 19.664 215.087 20.176C215.087 20.752 214.991 21.2853 214.799 21.776C214.607 22.256 214.335 22.6773 213.983 23.04C213.642 23.4027 213.226 23.6853 212.735 23.888C212.255 24.0907 211.716 24.192 211.119 24.192Z" fill="#1A1A1A"/>
</g>
<defs>
<filter id="filter0_d_1_641" x="0" y="0" width="230" height="40" filterUnits="userSpaceOnUse" color-interpolation-filters="sRGB">
<feFlood flood-opacity="0" result="BackgroundImageFix"/>
<feColorMatrix in="SourceAlpha" type="matrix" values="0 0 0 0 0 0 0 0 0 0 0 0 0 0 0 0 0 0 127 0" result="hardAlpha"/>
<feOffset dy="1"/>
<feGaussianBlur stdDeviation="1"/>
<feColorMatrix type="matrix" values="0 0 0 0 0.101961 0 0 0 0 0.101961 0 0 0 0 0.101961 0 0 0 0.08 0"/>
<feBlend mode="normal" in2="BackgroundImageFix" result="effect1_dropShadow_1_641"/>
<feBlend mode="normal" in="SourceGraphic" in2="effect1_dropShadow_1_641" result="shape"/>
</filter>
<clipPath id="clip0_1_641">
<rect width="18" height="18" fill="white" transform="translate(14 10)"/>
</clipPath>
</defs>
</svg>
